<svg width="43" height="43" viewBox="0 0 43 43" fill="none" xmlns="http://www.w3.org/2000/svg">
<path d="M18.1932 34.4666V18.7429L16.1479 18.5054C15.8922 18.4446 15.6792 18.3533 15.5087 18.2315C15.3504 18.0976 15.2713 17.9089 15.2713 17.6654V16.3323H18.1932V14.5426C18.1932 13.4834 18.3393 12.5459 18.6315 11.7302C18.9359 10.9023 19.362 10.2083 19.9099 9.64831C20.4699 9.07609 21.1395 8.64389 21.9187 8.3517C22.6979 8.0595 23.5745 7.9134 24.5485 7.9134C25.3764 7.9134 26.1373 8.03515 26.8312 8.27865L26.7582 9.90398C26.7338 10.1962 26.5695 10.3544 26.2651 10.3788C25.9729 10.4031 25.5772 10.4153 25.0781 10.4153C24.518 10.4153 24.0067 10.4884 23.544 10.6345C23.0936 10.7806 22.704 11.018 22.3753 11.3467C22.0466 11.6754 21.7909 12.1076 21.6083 12.6433C21.4378 13.179 21.3526 13.8425 21.3526 14.6339V16.3323H26.6851V18.6881H21.4622V34.4666H18.1932Z" fill="#404040"/>
<path d="M2.14062 21.6561C2.14062 12.569 2.14062 8.02542 4.96363 5.2024C7.78665 2.37939 12.3302 2.37939 21.4173 2.37939C30.5044 2.37939 35.048 2.37939 37.8711 5.2024C40.694 8.02542 40.694 12.569 40.694 21.6561C40.694 30.7431 40.694 35.2868 37.8711 38.1099C35.048 40.9328 30.5044 40.9328 21.4173 40.9328C12.3302 40.9328 7.78665 40.9328 4.96363 38.1099C2.14062 35.2868 2.14062 30.7431 2.14062 21.6561Z" stroke="#404040" stroke-width="3.04369" stroke-linejoin="round"/>
</svg>
