<svg width="46" height="45" viewBox="0 0 46 45" fill="none" xmlns="http://www.w3.org/2000/svg">
<path d="M3.54395 22.6705C3.54395 13.5834 3.54395 9.03982 6.36695 6.2168C9.18997 3.3938 13.7335 3.3938 22.8206 3.3938C31.9077 3.3938 36.4513 3.3938 39.2744 6.2168C42.0973 9.03982 42.0973 13.5834 42.0973 22.6705C42.0973 31.7575 42.0973 36.3012 39.2744 39.1243C36.4513 41.9472 31.9077 41.9472 22.8206 41.9472C13.7335 41.9472 9.18997 41.9472 6.36695 39.1243C3.54395 36.3012 3.54395 31.7575 3.54395 22.6705Z" stroke="#404040" stroke-width="3.04369" stroke-linejoin="round"/>
<path d="M31.9516 22.6706C31.9516 27.7136 27.8635 31.8017 22.8205 31.8017C17.7776 31.8017 13.6895 27.7136 13.6895 22.6706C13.6895 17.6277 17.7776 13.5396 22.8205 13.5396C27.8635 13.5396 31.9516 17.6277 31.9516 22.6706Z" stroke="#404040" stroke-width="3.04369"/>
<path d="M33.9968 11.5103H33.9785" stroke="#404040" stroke-width="4.05825" stroke-linecap="round" stroke-linejoin="round"/>
</svg>
