<svg width="41" height="30" viewBox="0 0 41 30" fill="none" xmlns="http://www.w3.org/2000/svg">
<g clip-path="url(#clip0_23_28)">
<path d="M0 0H4.95884C8.20016 0 11.0153 0.345271 13.4044 1.03581C15.7934 1.72635 17.7692 2.7174 19.3317 4.00896C20.9072 5.28774 22.0759 6.84784 22.8378 8.6893C23.6126 10.5179 24 12.5768 24 14.8658C24 17.0397 23.619 19.0538 22.8571 20.908C22.0952 22.7494 20.933 24.3479 19.3705 25.7034C17.8079 27.0461 15.8321 28.1011 13.4431 28.8685C11.0541 29.6229 8.23891 30 4.99759 30H0V0ZM6.46973 24.7251C8.30347 24.7251 9.91122 24.495 11.293 24.0346C12.6747 23.5615 13.824 22.8965 14.7409 22.0397C15.6707 21.1829 16.3681 20.1471 16.8329 18.9323C17.2978 17.7175 17.5303 16.362 17.5303 14.8658C17.5303 13.3952 17.2978 12.0717 16.8329 10.8952C16.3681 9.70592 15.6707 8.70208 14.7409 7.88367C13.824 7.05245 12.6747 6.41306 11.293 5.9655C9.91122 5.51791 8.30347 5.29413 6.46973 5.29413V24.7251Z" fill="black"/>
<path d="M18 0H27.6003C29.4907 0 31.134 0.211134 32.5301 0.633399C33.9388 1.04287 35.1063 1.61229 36.0331 2.34165C36.9598 3.07102 37.6454 3.94113 38.0902 4.95201C38.5473 5.9501 38.7761 7.03135 38.7761 8.19578C38.7761 10.1024 38.1952 11.7722 37.0338 13.2054C38.3682 14.0243 39.3628 15.0864 40.0177 16.3916C40.6726 17.6968 41 19.1811 41 20.8446C41 22.2393 40.7715 23.4997 40.3141 24.6258C39.8693 25.7518 39.1837 26.7179 38.257 27.524C37.3428 28.3175 36.1811 28.9315 34.7727 29.3666C33.3766 29.7888 31.7271 30 29.8242 30H18V0ZM29.8614 11.5163C30.3679 11.5163 30.8622 11.5355 31.3441 11.5739C32.1719 10.755 32.5857 9.82088 32.5857 8.77161C32.5857 7.68396 32.1719 6.84582 31.3441 6.25721C30.5286 5.65581 29.33 5.35509 27.7486 5.35509H18V11.5163H29.8614ZM29.9726 24.7025C31.5542 24.7025 32.7525 24.3506 33.568 23.6469C34.3959 22.9431 34.8099 21.9514 34.8099 20.6718C34.8099 19.3922 34.3959 18.3941 33.568 17.6776C32.7525 16.961 31.5542 16.6027 29.9726 16.6027H18V24.7025H29.9726Z" fill="black"/>
<path d="M4 0H18V3L4 0Z" fill="black"/>
<path d="M0 30H19V26L0 30Z" fill="black"/>
</g>
<defs>
<clipPath id="clip0_23_28">
<rect width="41" height="30" fill="white"/>
</clipPath>
</defs>
</svg>
