<svg width="37" height="33" viewBox="0 0 37 33" fill="none" xmlns="http://www.w3.org/2000/svg">
<path d="M1.84865 13.1531V28.4163C1.84865 30.9428 3.92291 33 6.47411 33H30.524C33.0735 33 35.1495 30.9445 35.1495 28.4163V13.1531C36.2803 12.1855 37 10.759 37 9.16751C37 9.15892 36.9948 9.15205 36.9948 9.14345C36.9913 9.05408 36.9827 8.96471 36.9514 8.87706L34.8096 2.50752C34.3049 1.00711 32.8949 0 31.301 0H5.69896C4.10336 0 2.69339 1.00715 2.19044 2.50752L0.0485607 8.87706C0.0190773 8.96471 0.00867142 9.05236 0.00520255 9.14345C0.00520255 9.15205 0 9.15892 0 9.16751C0 10.759 0.719747 12.1872 1.85054 13.1531H1.84865ZM29.5978 31.1649H22.1975V19.2494C22.1975 18.7613 22.8461 18.3334 23.5849 18.3334H28.2104C28.9492 18.3334 29.5978 18.7613 29.5978 19.2494V31.1649ZM33.2971 28.415C33.2971 29.6077 32.5219 30.6166 31.4466 30.9964V19.2495C31.4466 17.7336 29.995 16.4996 28.2086 16.4996H23.5832C21.7985 16.4996 20.3452 17.7336 20.3452 19.2495V31.1649H6.47056C4.94089 31.1649 3.69564 29.9309 3.69564 28.4151V14.1862C4.20551 14.3478 4.75011 14.4372 5.31375 14.4372C7.13654 14.4372 8.74772 13.5228 9.70678 12.1342C10.6659 13.5246 12.2771 14.4372 14.0998 14.4372C15.9226 14.4372 17.5338 13.5228 18.4928 12.1342C19.4519 13.5246 21.0631 14.4372 22.8859 14.4372C24.7087 14.4372 26.3198 13.5228 27.2789 12.1342C28.238 13.5246 29.8492 14.4372 31.6719 14.4372C32.2356 14.4372 32.7802 14.3478 33.29 14.1862V28.4151L33.2971 28.415ZM19.4226 8.24999V1.83425H24.6931L26.1326 8.24999H19.4226ZM26.2195 10.0838C25.812 11.5327 24.4817 12.6051 22.8931 12.6051C21.3027 12.6051 19.9742 11.5344 19.5667 10.0838H26.2211H26.2195ZM17.5738 8.24999H10.8638L12.3033 1.83425H17.5739L17.5738 8.24999ZM17.4316 10.0838C17.024 11.5327 15.6938 12.6051 14.1051 12.6051C12.5148 12.6051 11.1863 11.5344 10.7787 10.0838H17.4332H17.4316ZM35.0055 10.0838C34.5979 11.5327 33.2677 12.6051 31.679 12.6051C30.0887 12.6051 28.7602 11.5344 28.3526 10.0838H35.0071H35.0055ZM33.0526 3.0873L34.7887 8.24999H28.0268L26.5873 1.83425H31.2958C32.0936 1.83425 32.7994 2.3378 33.0509 3.08888L33.0526 3.0873ZM3.94395 3.0873C4.19543 2.33797 4.90128 1.83438 5.69908 1.83438H10.4076L8.96807 8.25012H2.20614L3.94222 3.08743L3.94395 3.0873ZM8.644 10.0838C8.23644 11.5327 6.90619 12.6051 5.31756 12.6051C3.7272 12.6051 2.3987 11.5344 1.99112 10.0838H8.6456H8.644Z" fill="#202020"/>
</svg>
