<svg width="44" height="43" viewBox="0 0 44 43" fill="none" xmlns="http://www.w3.org/2000/svg">
<path d="M2.91895 21.6561C2.91895 12.569 2.91895 8.02542 5.74195 5.2024C8.56497 2.37939 13.1085 2.37939 22.1956 2.37939C31.2827 2.37939 35.8263 2.37939 38.6494 5.2024C41.4723 8.02542 41.4723 12.569 41.4723 21.6561C41.4723 30.7431 41.4723 35.2868 38.6494 38.1099C35.8263 40.9328 31.2827 40.9328 22.1956 40.9328C13.1085 40.9328 8.56497 40.9328 5.74195 38.1099C2.91895 35.2868 2.91895 30.7431 2.91895 21.6561Z" stroke="#404040" stroke-width="3.04369" stroke-linejoin="round"/>
<path d="M31.6331 21.7799C32.3381 22.1645 32.3381 23.1768 31.6331 23.5613L15.5793 32.3179C14.9032 32.6867 14.0789 32.1973 14.0789 31.4272L14.0789 13.914C14.0789 13.1439 14.9033 12.6545 15.5793 13.0233L31.6331 21.7799Z" fill="#404040" stroke="#404040" stroke-width="2.02913"/>
</svg>
